<svg width="16" height="16" viewBox="0 0 16 16" fill="none" xmlns="http://www.w3.org/2000/svg">
<g clip-path="url(#clip0_32:812)">
<path d="M15.9845 4.70404C15.947 3.8539 15.8095 3.26944 15.6126 2.76299C15.4094 2.22541 15.0969 1.74411 14.6874 1.34401C14.2873 0.937683 13.8028 0.621948 13.2714 0.421957C12.7621 0.22502 12.1806 0.0875415 11.3305 0.0500586C10.474 0.00940124 10.2021 0 8.02981 0C5.85752 0 5.58561 0.00940124 4.7323 0.0468842C3.88216 0.0843671 3.29769 0.221967 2.79137 0.418783C2.25367 0.621948 1.77237 0.934509 1.37227 1.34401C0.965941 1.74411 0.650328 2.22858 0.450216 2.75994C0.253279 3.26944 0.115801 3.85073 0.0783178 4.70087C0.0376605 5.55736 0.0282593 5.82926 0.0282593 8.00156C0.0282593 10.1739 0.0376605 10.4458 0.0751434 11.2991C0.112626 12.1492 0.250226 12.7337 0.447164 13.2401C0.650328 13.7777 0.965941 14.259 1.37227 14.6591C1.77237 15.0654 2.25684 15.3812 2.78819 15.5812C3.29769 15.7781 3.87898 15.9156 4.72925 15.9531C5.58244 15.9907 5.85446 15.9999 8.02676 15.9999C10.1991 15.9999 10.471 15.9907 11.3243 15.9531C12.1744 15.9156 12.7589 15.7781 13.2652 15.5812C14.3405 15.1654 15.1906 14.3153 15.6064 13.2401C15.8032 12.7306 15.9408 12.1492 15.9783 11.2991C16.0157 10.4458 16.0251 10.1739 16.0251 8.00156C16.0251 5.82926 16.022 5.55736 15.9845 4.70404ZM14.5437 11.2366C14.5092 12.018 14.378 12.4399 14.2686 12.7212C13.9997 13.4183 13.4465 13.9715 12.7495 14.2403C12.4682 14.3497 12.0432 14.481 11.2648 14.5153C10.4209 14.5529 10.1678 14.5622 8.03299 14.5622C5.89817 14.5622 5.6419 14.5529 4.80104 14.5153C4.01963 14.481 3.59768 14.3497 3.31637 14.2403C2.9695 14.1121 2.65377 13.909 2.39749 13.6433C2.13182 13.3838 1.92865 13.0713 1.80045 12.7244C1.69106 12.4431 1.55981 12.018 1.5255 11.2397C1.48789 10.3958 1.47861 10.1426 1.47861 8.00779C1.47861 5.87297 1.48789 5.6167 1.5255 4.77596C1.55981 3.99455 1.69106 3.5726 1.80045 3.29129C1.92865 2.9443 2.13182 2.62869 2.40067 2.37229C2.66 2.10661 2.97256 1.90345 3.31955 1.77537C3.60085 1.66597 4.02598 1.53472 4.80421 1.50029C5.64812 1.46281 5.90135 1.45341 8.03604 1.45341C10.174 1.45341 10.4271 1.46281 11.268 1.50029C12.0494 1.53472 12.4713 1.66597 12.7527 1.77537C13.0995 1.90345 13.4153 2.10661 13.6715 2.37229C13.9372 2.63174 14.1404 2.9443 14.2686 3.29129C14.378 3.5726 14.5092 3.99761 14.5437 4.77596C14.5811 5.61987 14.5905 5.87297 14.5905 8.00779C14.5905 10.1426 14.5811 10.3927 14.5437 11.2366Z" fill="white"/>
<path d="M8.02967 3.89124C5.76055 3.89124 3.91949 5.73217 3.91949 8.00141C3.91949 10.2707 5.76055 12.1116 8.02967 12.1116C10.2989 12.1116 12.1398 10.2707 12.1398 8.00141C12.1398 5.73217 10.2989 3.89124 8.02967 3.89124ZM8.02967 10.6676C6.55758 10.6676 5.3635 9.47362 5.3635 8.00141C5.3635 6.5292 6.55758 5.33524 8.02967 5.33524C9.50188 5.33524 10.6958 6.5292 10.6958 8.00141C10.6958 9.47362 9.50188 10.6676 8.02967 10.6676Z" fill="white"/>
<path d="M13.262 3.72883C13.262 4.25872 12.8323 4.68837 12.3023 4.68837C11.7724 4.68837 11.3428 4.25872 11.3428 3.72883C11.3428 3.19882 11.7724 2.76929 12.3023 2.76929C12.8323 2.76929 13.262 3.19882 13.262 3.72883Z" fill="white"/>
</g>
<defs>
<clipPath id="clip0_32:812">
<rect width="16" height="16" fill="white"/>
</clipPath>
</defs>
</svg>
