<svg width="20" height="14" viewBox="0 0 20 14" fill="none" xmlns="http://www.w3.org/2000/svg">
<path fill-rule="evenodd" clip-rule="evenodd" d="M0.375031 7.00004C0.375031 7.18238 0.447462 7.35724 0.576393 7.48618C0.705324 7.61511 0.880194 7.68754 1.06253 7.68754L17.2779 7.68754L12.9508 12.0133C12.8869 12.0772 12.8362 12.1531 12.8016 12.2366C12.767 12.3201 12.7492 12.4096 12.7492 12.5C12.7492 12.5904 12.767 12.6799 12.8016 12.7635C12.8362 12.847 12.8869 12.9229 12.9508 12.9868C13.0147 13.0507 13.0906 13.1014 13.1741 13.136C13.2576 13.1706 13.3471 13.1884 13.4375 13.1884C13.5279 13.1884 13.6174 13.1706 13.701 13.136C13.7845 13.1014 13.8604 13.0507 13.9243 12.9868L19.4243 7.48679C19.4883 7.42293 19.5391 7.34706 19.5738 7.26354C19.6084 7.18001 19.6263 7.09047 19.6263 7.00004C19.6263 6.90961 19.6084 6.82007 19.5738 6.73654C19.5391 6.65302 19.4883 6.57715 19.4243 6.51329L13.9243 1.01329C13.8604 0.949368 13.7845 0.898664 13.701 0.86407C13.6174 0.829476 13.5279 0.811671 13.4375 0.811672C13.3471 0.811671 13.2576 0.829476 13.1741 0.86407C13.0906 0.898664 13.0147 0.949368 12.9508 1.01329C12.8869 1.07721 12.8362 1.1531 12.8016 1.23661C12.767 1.32013 12.7492 1.40964 12.7492 1.50004C12.7492 1.59044 12.767 1.67995 12.8016 1.76347C12.8362 1.84698 12.8869 1.92287 12.9508 1.98679L17.2779 6.31254L1.06253 6.31254C0.880194 6.31254 0.705324 6.38497 0.576393 6.5139C0.447462 6.64283 0.375031 6.8177 0.375031 7.00004Z" fill="#0C46C1"/>
</svg>
